<svg xmlns="http://www.w3.org/2000/svg" width="48" height="48"><path
         d="m 18.849609,5.9492188 c -0.03118,0 -0.0607,0.00372 -0.0918,0.00391 v 3 c 0.03107,-2.494e-4 0.06062,-0.00391 0.0918,-0.00391 2.7,-1e-7 5.000391,0.9583333 6.900391,2.8750002 1.892063,1.90866 2.839752,4.207116 2.847656,6.892578 h 3 c -0.0079,-3.518764 -1.247251,-6.52556 -3.722656,-9.0175782 -2.483333,-2.5 -5.492057,-3.75 -9.025391,-3.75 z" style="fill:#e5443a;fill-opacity:1;"/><path d="M 18.757812,5.953125 C 15.231568,5.9747883 12.228146,7.2210731 9.75,9.6992188 7.2579817,12.191237 6.0099093,15.198033 6.0019531,18.716797 h 3 c 0.00797,-2.685462 0.964387,-4.983918 2.8730469,-6.892578 1.894804,-1.8948041 4.189867,-2.8494805 6.882812,-2.871094 z" style="fill:#f7ba2f;fill-opacity:1;"/> <path d="M 6.0019531,18.716797 C 6.0019276,18.728067 6,18.738719 6,18.75 c 0,3.533333 1.25,6.550781 3.75,9.050781 2.466358,2.466358 5.47086,3.710952 9.007812,3.744141 V 28.546875 C 16.064867,28.525262 13.769804,27.570585 11.875,25.675781 9.9583333,23.759115 9,21.45 9,18.75 9,18.73872 9.00192,18.72806 9.00195,18.7168 Z" style="fill:#38a756;fill-opacity:1;"/><path d="m 28.597656,18.716797 c 3.3e-5,0.01127 0.002,0.02192 0.002,0.0332 0,2.7 -0.949609,5.009115 -2.849609,6.925781 -1.9,1.916667 -4.200391,2.875 -6.900391,2.875 -0.03118,0 -0.06072,-0.0037 -0.0918,-0.0039 v 2.998047 c 0.04825,4.53e-4 0.09413,0.0059 0.142579,0.0059 1.5,0 2.916666,-0.243229 4.25,-0.726562 1.333333,-0.483334 2.5,-1.156771 3.5,-2.023438 L 39.800781,41.949219 42,39.75 28.800781,26.650391 c 0.933334,-1.166667 1.632943,-2.416667 2.09961,-3.75 0.466666,-1.333334 0.699218,-2.717058 0.699218,-4.150391 0,-0.01128 -0.0019,-0.02193 -0.002,-0.0332 z" style="fill:#4589ed;fill-opacity:1;stroke:none;stroke-width:0.00914818;"/>
</svg>
